<?xml version="1.0" encoding="UTF-8" standalone="no"?>
<!-- Created with Inkscape (http://www.inkscape.org/) -->

<svg
   xmlns:dc="http://purl.org/dc/elements/1.1/"
   xmlns:cc="http://creativecommons.org/ns#"
   xmlns:rdf="http://www.w3.org/1999/02/22-rdf-syntax-ns#"
   xmlns:svg="http://www.w3.org/2000/svg"
   xmlns="http://www.w3.org/2000/svg"
   xmlns:sodipodi="http://sodipodi.sourceforge.net/DTD/sodipodi-0.dtd"
   xmlns:inkscape="http://www.inkscape.org/namespaces/inkscape"
   width="343pt"
   height="340pt"
   id="svg2992"
   version="1.1"
   inkscape:version="0.48.4 r9939"
   sodipodi:docname="New document 1">
  <defs
     id="defs2994" />
  <sodipodi:namedview
     pagecolor="#ffffff"
     bordercolor="#666666"
     borderopacity="1.0"
     inkscape:pageopacity="0.0"
     inkscape:pageshadow="2"
     inkscape:zoom="1.1313708"
     inkscape:cx="381.69941"
     inkscape:cy="166.85372"
     inkscape:document-units="pt"
     inkscape:current-layer="layer5"
     id="namedview2996"
     showgrid="false"
     inkscape:window-width="1920"
     inkscape:window-height="1025"
     inkscape:window-x="-2"
     inkscape:window-y="-3"
     inkscape:window-maximized="1" />
  <metadata
     id="metadata2998">
    <rdf:RDF>
      <cc:Work
         rdf:about="">
        <dc:format>image/svg+xml</dc:format>
        <dc:type
           rdf:resource="http://purl.org/dc/dcmitype/StillImage" />
        <dc:title></dc:title>
      </cc:Work>
    </rdf:RDF>
  </metadata>
  <g
     inkscape:label="Layer 1"
     inkscape:groupmode="layer"
     id="layer1"
     style="display:inline">
    <path
       sodipodi:type="arc"
       style="fill:#000000;fill-opacity:1;fill-rule:evenodd;stroke:#000000;stroke-width:1px;stroke-linecap:butt;stroke-linejoin:miter;stroke-opacity:1"
       id="path3001"
       sodipodi:cx="213.75"
       sodipodi:cy="211.875"
       sodipodi:rx="208.75"
       sodipodi:ry="206.875"
       d="m 422.5,211.875 a 208.75,206.875 0 1 1 -417.5,0 208.75,206.875 0 1 1 417.5,0 z"
       transform="translate(-3.125,-1.5625)" />
    <path
       d="m 273.75,211.875 a 60,58.125 0 1 1 -120,0 60,58.125 0 1 1 120,0 z"
       sodipodi:ry="58.125"
       sodipodi:rx="60"
       sodipodi:cy="211.875"
       sodipodi:cx="213.75"
       id="path3771"
       style="fill:#ffffff;fill-opacity:1;fill-rule:evenodd;stroke:#899288;stroke-width:1px;stroke-linecap:butt;stroke-linejoin:miter;stroke-opacity:1"
       sodipodi:type="arc"
       transform="translate(-3.125,-1.5625)" />
  </g>
  <g
     inkscape:groupmode="layer"
     id="layer2"
     inkscape:label="Layer 2">
    <rect
       style="fill:#ffffff;fill-opacity:1;stroke:#ffffff;stroke-width:0.900473;stroke-opacity:1;display:inline"
       id="rect3838"
       width="426.34952"
       height="117.59953"
       x="-2.5497589"
       y="151.51273"
       ry="0" />
  </g>
  <g
     inkscape:groupmode="layer"
     id="layer3"
     inkscape:label="Layer 3">
    <path
       sodipodi:type="arc"
       style="fill:#ffffff;fill-opacity:1;fill-rule:evenodd;stroke:#899288;stroke-width:1px;stroke-linecap:butt;stroke-linejoin:miter;stroke-opacity:1;display:inline"
       id="path3855"
       sodipodi:cx="213.75"
       sodipodi:cy="211.875"
       sodipodi:rx="60"
       sodipodi:ry="58.125"
       d="m 273.75,211.875 a 60,58.125 0 1 1 -120,0 60,58.125 0 1 1 120,0 z"
       transform="translate(-3.125,-1.5625)" />
    <path
       sodipodi:type="arc"
       style="fill:#000000;fill-opacity:0;fill-rule:evenodd;stroke:#000000;stroke-width:1px;stroke-linecap:butt;stroke-linejoin:miter;stroke-opacity:1;display:inline"
       id="path3001-6"
       sodipodi:cx="213.75"
       sodipodi:cy="211.875"
       sodipodi:rx="208.75"
       sodipodi:ry="206.875"
       d="m 422.5,211.875 a 208.75,206.875 0 1 1 -417.5,0 208.75,206.875 0 1 1 417.5,0 z"
       transform="translate(-3.125,-1.5625)" />
  </g>
  <g
     inkscape:groupmode="layer"
     id="layer4"
     inkscape:label="Text" />
  <g
     inkscape:groupmode="layer"
     id="layer5"
     inkscape:label="Avatar">
    <path
       style="display:inline"
       inkscape:connector-curvature="0"
       d="m 76.72951,168.63995 c -2.87541,0.36409 -3.3488,0.44684 -5.172214,0.86058 -15.446524,3.50851 -26.948139,14.26573 -29.122215,27.2737 -0.245465,1.47291 -0.438322,4.30289 -0.315603,4.48493 0.05264,0.0993 1.174706,0.1324 2.629945,0.11585 l 2.524739,-0.0496 0.05264,-0.41374 c 0.50845,-4.83247 2.016289,-8.92022 4.698826,-12.75972 4.102706,-5.89165 10.204171,-10.21109 17.778396,-12.61077 6.381999,-2.01905 12.728917,-2.39969 19.549228,-1.17502 1.560428,0.28134 1.788353,0.34754 4.032567,0.99297 7.626831,2.21764 14.254291,6.81843 18.356991,12.74317 1.35005,1.9694 2.75268,4.60078 3.2962,6.27229 0.12272,0.36409 0.28052,0.84403 0.36819,1.07572 0.35066,1.04263 0.89417,3.77331 1.06951,5.46136 l 0.0526,0.41374 2.85788,0.0496 2.84033,0.0331 0,-0.95988 c 0,-1.00952 -0.38572,-3.8064 -0.71885,-5.24621 -0.24546,-1.02607 -1.31498,-4.26979 -1.68316,-5.04762 -2.24422,-4.93177 -5.64561,-9.20156 -10.16911,-12.77627 -2.43708,-1.91975 -4.24297,-3.02857 -7.5041,-4.60078 -3.033188,-1.45636 -5.154684,-2.21765 -8.678802,-3.09477 -5.172215,-1.29087 -11.641872,-1.68806 -16.743955,-1.04263 z m 12.097721,1.27432 c 2.665005,0.43029 6.85538,1.60531 10.134042,2.84653 4.383237,1.65496 8.415807,4.20359 12.185387,7.69555 2.45461,2.26729 3.52412,3.54161 5.20728,6.13989 1.70069,2.64793 2.03383,3.34302 3.10334,6.45433 1.05197,3.02858 1.36757,4.35254 1.36757,5.62686 0,1.14192 -0.3156,1.40671 -1.66563,1.40671 -1.38511,0 -1.57797,-0.19859 -1.82343,-1.82045 -0.40325,-2.73068 -1.17471,-4.91522 -2.71761,-7.86105 -1.82342,-3.45886 -3.41893,-5.511 -6.43459,-8.27478 -2.26174,-2.0687 -4.43583,-3.62436 -6.76772,-4.84903 -1.27989,-0.66198 -1.876019,-0.94332 -4.190361,-1.9363 -1.314973,-0.56268 -5.067026,-1.67151 -6.469658,-1.88665 -0.666247,-0.11585 -1.560428,-0.26479 -1.98122,-0.34754 -0.403251,-0.0993 -3.506578,-0.1655 -6.872918,-0.1655 -3.366319,0 -6.469645,0.0662 -6.872898,0.1655 -0.420801,0.0828 -1.297443,0.23169 -1.98122,0.34754 -3.909849,0.61233 -9.871048,3.09477 -13.833496,5.7427 -1.998759,1.34052 -5.522877,4.60078 -7.153434,6.65293 -2.033829,2.56518 -4.155306,6.63638 -4.94429,9.56565 -0.333133,1.22467 -0.666247,2.63139 -0.736385,3.14442 -0.157797,1.24122 -0.420791,1.52256 -1.507839,1.52256 -1.069508,0 -1.542898,-0.39719 -1.542898,-1.29086 0,-1.58876 1.770833,-7.38111 2.91047,-9.51601 0.701326,-1.32396 2.840342,-4.53458 3.822182,-5.7427 2.96307,-3.67401 8.521007,-7.8114 13.605563,-10.12834 2.963069,-1.35706 8.047616,-2.82998 12.360717,-3.57471 1.139647,-0.19859 11.431483,-0.13239 12.799046,0.0828 z"
       id="path3253" />
    <path
       style="display:inline"
       inkscape:connector-curvature="0"
       d="m 81.147798,179.52957 c -0.99937,0.99298 -0.368183,2.84653 0.964319,2.84653 0.771445,0 1.542899,-0.84403 1.542899,-1.65496 0,-0.46339 -0.140267,-0.76128 -0.508459,-1.14192 -0.666247,-0.66198 -1.350033,-0.67853 -1.998759,-0.0497 z"
       id="path3255" />
    <path
       style="display:inline"
       inkscape:connector-curvature="0"
       d="m 70.505308,186.1494 c 0,3.44231 -0.05264,6.30539 -0.105197,6.35504 -0.05264,0.0662 -0.385723,-0.1986 -0.736376,-0.57924 -1.560438,-1.6715 -2.209145,-2.26729 -2.489679,-2.26729 -0.455851,0 -2.980599,1.837 -4.593636,3.34302 -1.876022,1.7377 -3.43645,3.7402 -4.523497,5.8089 -1.104568,2.06869 -1.350033,2.82997 -1.051978,3.17751 0.122736,0.1324 0.368201,0.24825 0.543528,0.24825 0.192856,0 0.946771,0.18204 1.700695,0.41374 0.736385,0.21514 2.016289,0.59578 2.840332,0.82748 0.824053,0.23169 2.121487,0.59578 2.892941,0.82747 0.771444,0.21515 2.068878,0.59579 2.892931,0.82748 2.542268,0.71163 4.4183,1.25777 5.803401,1.67151 0.736385,0.21514 1.455231,0.39719 1.595498,0.39719 0.298053,0 4.698821,-4.005 4.698821,-4.26979 0,-0.11585 -0.455851,-0.67853 -0.99938,-1.24122 -0.561036,-0.57923 -1.297421,-1.34051 -1.630554,-1.7046 -0.333133,-0.36409 -0.94678,-1.00953 -1.350033,-1.43982 l -0.753914,-0.77783 0,-5.94129 c 0,-3.27682 0.05264,-6.05715 0.105188,-6.20609 0.157807,-0.36409 0.420801,-0.331 0.420801,0.0662 0,0.18205 0.210396,0.74474 0.455851,1.27432 0.508459,1.04262 0.718855,1.52256 1.297434,2.78033 0.420801,0.94333 0.683795,1.50601 1.192232,2.56518 0.192876,0.41374 0.52599,1.15847 0.736385,1.65496 0.227935,0.49649 0.45587,0.97643 0.52599,1.04262 0.105207,0.11585 1.700695,0.18205 3.173465,0.1324 0.175336,-0.0166 0.403261,-0.33099 0.596127,-0.81093 0.280525,-0.69508 0.631178,-1.42326 1.683156,-3.62435 0.175326,-0.39719 0.333133,-0.74474 0.333133,-0.77783 0,-0.0497 0.245455,-0.57924 0.543509,-1.20812 0.280535,-0.61234 0.596128,-1.27432 0.683796,-1.45637 0.07012,-0.18204 0.262985,-0.59578 0.420791,-0.94332 0.157787,-0.33099 0.280524,-0.67853 0.280524,-0.79438 0,-0.0993 0.08769,-0.1324 0.175327,-0.0828 0.105198,0.0662 0.175326,2.38314 0.175326,6.43779 l 0,6.32193 -2.191614,2.1349 c -1.192246,1.19157 -2.174086,2.23419 -2.191616,2.33349 0,0.11584 0.210386,0.33099 0.49092,0.47993 0.473391,0.2979 3.033198,2.18455 4.628695,3.42577 0.455852,0.34754 0.946781,0.62888 1.104578,0.62888 0.157797,0 0.859112,-0.18205 1.542889,-0.39719 1.227314,-0.38064 3.804661,-1.14192 7.837229,-2.35004 1.104573,-0.31444 2.577343,-0.76128 3.243593,-0.95987 0.68379,-0.21515 1.94616,-0.59579 2.80527,-0.84403 0.87665,-0.24825 1.63057,-0.49649 1.7007,-0.56269 0.38572,-0.33099 -1.68317,-4.35254 -3.33126,-6.47088 -1.7533,-2.23419 -5.943662,-5.79235 -6.837843,-5.79235 -0.210396,0 -0.99938,0.64543 -2.016299,1.6715 -0.96431,0.94333 -1.770814,1.62186 -1.876021,1.55566 -0.122719,-0.0827 -0.175327,-2.03559 -0.175327,-6.42123 0,-3.47541 0.01758,-6.42123 0,-6.53708 0,-0.14895 -0.771444,-0.1986 -3.226055,-0.1986 l -3.226063,0 -0.385722,0.86058 c -0.420792,0.95988 -0.946781,2.08525 -1.314973,2.86308 -0.122728,0.26479 -0.438321,0.95987 -0.683787,1.53911 -0.262994,0.56268 -0.683785,1.50601 -0.96431,2.06869 -0.262994,0.56269 -0.631187,1.37362 -0.824053,1.80391 -0.175326,0.44684 -0.385722,0.79438 -0.455851,0.79438 -0.07012,0 -0.227935,-0.24825 -0.368192,-0.54614 -0.140267,-0.28134 -0.420791,-0.87713 -0.631187,-1.30741 -0.210396,-0.44684 -0.648717,-1.43982 -0.999379,-2.2342 -0.350654,-0.81093 -0.788975,-1.78735 -0.981851,-2.20109 -0.192853,-0.41374 -0.455847,-0.97642 -0.578575,-1.24122 -0.122737,-0.28134 -0.438321,-0.92677 -0.683786,-1.45636 l -0.438331,-0.94333 -3.243584,0 -3.261133,0 0,6.25574 z m 5.470288,-4.74972 c 0.350653,0.18204 0.98184,1.39016 2.156546,4.12084 2.016286,4.66698 2.156543,4.88212 3.173462,5.06417 0.859103,0.14894 1.735764,-0.31444 2.156546,-1.14192 0.438321,-0.89368 1.525369,-3.35957 2.47215,-5.62686 0.420781,-0.97642 0.929241,-1.95285 1.122097,-2.16799 0.718855,-0.72818 3.699454,-0.76128 4.225443,-0.0331 0.210396,0.28134 0.262995,1.27432 0.262995,5.82545 0,5.24621 0.01758,5.49446 0.350653,5.9082 0.753924,0.89367 1.998759,0.69508 3.243604,-0.54614 0.753914,-0.74473 1.455229,-1.15847 1.981219,-1.15847 0.350663,0 2.857862,1.68806 3.489059,2.33349 1.78835,1.88665 4.43583,5.95785 4.43583,6.85152 0,0.54614 -0.52599,0.84403 -2.54228,1.42327 -0.96431,0.28134 -3.401389,1.02607 -5.435208,1.63841 -4.330631,1.30741 -6.206654,1.82045 -6.785251,1.82045 -0.613648,-0.0165 -2.191615,-1.05917 -3.94491,-2.59828 -0.666246,-0.61234 -0.525988,-0.97643 1.069518,-2.51554 0.806514,-0.77783 1.560419,-1.58876 1.665626,-1.78735 0.140258,-0.24825 0.192857,-2.33349 0.192857,-6.71913 0,-5.92475 -0.01758,-6.38814 -0.315584,-6.73568 -0.262995,-0.29789 -0.50846,-0.38064 -1.157186,-0.39719 -1.314963,0 -1.402631,0.0993 -3.506579,5.03107 -1.244835,2.87963 -1.665636,3.60781 -2.174086,3.77331 -0.262994,0.0827 -0.648726,0.0993 -0.859112,0.0165 -0.438321,-0.14895 -1.192245,-1.45637 -2.086418,-3.62436 -0.315593,-0.77783 -0.771451,-1.78735 -0.999376,-2.23419 -0.227925,-0.46339 -0.525989,-1.09227 -0.631196,-1.43982 -0.245456,-0.71163 -0.929242,-1.45636 -1.367563,-1.47291 -0.841582,-0.0497 -1.402631,0.0662 -1.718225,0.36409 -0.333132,0.31444 -0.350663,0.57924 -0.403252,6.15644 -0.03506,3.19407 0,6.05715 0.05264,6.35504 0.05264,0.29789 0.490921,0.94333 1.016909,1.50601 1.98122,2.1349 2.752674,3.09477 2.752674,3.47541 0,0.47994 -2.139026,2.64793 -2.770203,2.79688 -0.420792,0.0993 -1.805903,-0.21515 -5.207294,-1.19157 -1.051968,-0.29789 -3.033188,-0.86058 -4.38323,-1.24122 -5.87354,-1.65496 -6.750182,-1.98595 -6.750182,-2.56518 0,-0.77783 2.91047,-5.13037 4.523498,-6.75223 0.824053,-0.82748 3.313731,-2.43278 3.769583,-2.43278 0.280533,0 0.631186,0.19859 0.94678,0.52958 1.227305,1.30742 1.47277,1.45636 2.226685,1.45636 0.543518,0 0.841583,-0.0993 1.104577,-0.38064 0.350653,-0.34754 0.368192,-0.61233 0.45586,-5.79235 0.105189,-6.00749 0.08769,-5.97439 1.244835,-6.12334 0.753915,-0.0993 2.559808,0.0331 2.94553,0.2317 z"
       id="path3257" />
    <path
       style="display:inline"
       inkscape:connector-curvature="0"
       d="m 55.70752,209.50085 c -0.140276,0.1986 0.315584,2.99547 0.631178,3.98845 0.403252,1.25777 0.718845,1.82045 1.016909,1.82045 0.368192,0 0.525989,0.33099 0.525989,1.10882 0,0.67853 0.262994,2.30039 0.648717,3.85605 1.4903,6.22264 5.908599,11.8495 11.834738,15.02702 3.752044,2.01904 7.118365,2.84652 11.641869,2.84652 2.331873,0 2.963069,-0.0662 5.242343,-0.52958 4.050117,-0.81093 8.205422,-3.04513 11.449016,-6.12335 4.278031,-4.07119 6.767711,-9.35051 7.276171,-15.44075 0.0176,-0.36409 0.14026,-0.51304 0.40325,-0.54613 0.38573,-0.0496 0.63119,-0.54614 1.10458,-2.1018 0.33312,-1.15847 0.73638,-3.59126 0.63119,-3.85605 -0.0877,-0.21515 -0.96431,-0.23169 -7.24111,-0.1324 -6.907975,0.11585 -7.767088,0.1655 -7.749567,0.39719 0.01758,0.0662 0.4734,0.44684 1.016919,0.86058 0.543519,0.41374 2.121487,1.62186 3.471519,2.68103 2.121486,1.67151 2.577349,1.95285 3.103329,1.95285 0.85912,0 1.01692,0.24824 0.82405,1.40671 -0.75391,4.81593 -2.559807,8.32444 -5.855999,11.41921 -2.244215,2.1018 -4.821553,3.64091 -7.644365,4.55113 -3.944909,1.25777 -7.574224,1.32397 -12.097719,0.1986 -0.753915,-0.18205 -2.577348,-0.91023 -3.734524,-1.47291 -3.261123,-1.62186 -6.978098,-5.34552 -8.538535,-8.57268 -1.016909,-2.11835 -1.928621,-5.39516 -1.928621,-7.00047 l 0,-0.69509 1.122098,0 c 1.279913,0 1.139646,0.0662 5.137155,-2.69758 2.296822,-1.58875 3.208524,-2.33349 3.208524,-2.58173 0,-0.0662 -1.911082,-0.18204 -4.242964,-0.23169 -2.349412,-0.0662 -5.803411,-0.1655 -7.696962,-0.21515 -2.524748,-0.0828 -3.471519,-0.0662 -3.559178,0.0828 z m 11.063274,1.10882 c 0.648727,0.1655 0.631187,0.56269 -0.05264,1.17502 -0.96431,0.84403 -3.208534,2.18455 -4.015048,2.36659 -1.735764,0.43029 -1.840952,0.59579 -1.840952,3.09477 0,1.60531 0.07012,1.9363 0.718845,3.82295 0.385722,1.14192 0.911712,2.44934 1.157176,2.91273 2.542279,4.73318 7.767083,8.78782 13.026975,10.11179 1.560428,0.38064 1.92862,0.41374 5.908586,0.41374 3.962449,0 4.365711,-0.0331 5.943669,-0.41374 2.945539,-0.72818 6.574855,-2.71413 8.976866,-4.93178 1.227305,-1.14192 3.296193,-3.78985 4.015049,-5.16346 0.19285,-0.36409 0.70131,-1.63841 1.1221,-2.81343 0.75392,-2.1018 0.77145,-2.20109 0.73638,-4.1043 -0.0176,-2.23419 -0.17533,-2.54863 -1.43769,-2.91272 -0.36819,-0.0993 -1.157177,-0.59578 -1.753303,-1.09227 -0.596109,-0.49649 -1.279895,-1.02608 -1.50782,-1.17502 -0.578588,-0.36409 -0.736385,-0.89368 -0.333134,-1.17502 0.245466,-0.1655 1.279914,-0.21515 4.400767,-0.21515 3.85724,0 4.10271,0.0165 4.43584,0.331 0.28053,0.26479 0.33312,0.46338 0.24546,1.04262 -0.17534,1.19157 -0.43832,1.78735 -1.08705,2.46589 -0.61365,0.62888 -0.63118,0.72818 -0.75392,2.25074 -0.49091,6.42123 -4.786486,13.19001 -10.695086,16.91366 -2.261753,1.42326 -4.348161,2.26729 -7.433958,2.99547 -1.700705,0.41374 -2.261753,0.47994 -4.611175,0.47994 -2.402011,0 -2.892931,-0.0497 -4.751421,-0.49649 -3.068266,-0.72818 -5.084546,-1.53911 -7.381368,-2.99547 -3.243594,-2.05215 -6.311851,-5.31241 -8.065146,-8.58923 -1.385101,-2.61483 -2.43708,-5.94129 -2.629946,-8.39063 -0.105197,-1.43981 -0.140266,-1.53911 -0.736375,-2.16799 -0.648717,-0.67854 -0.911711,-1.27432 -1.087048,-2.46589 -0.08769,-0.57924 -0.03506,-0.77783 0.245456,-1.04262 0.333132,-0.31445 0.578598,-0.331 4.611166,-0.331 2.331882,0 4.418299,0.0496 4.628694,0.0993 z"
       id="path3259" />
    <path
       style="display:inline"
       inkscape:connector-curvature="0"
       d="m 66.122077,218.58657 c 0,0.0662 -0.175326,0.19859 -0.385722,0.28134 -0.210405,0.0993 -0.613657,0.46339 -0.876651,0.82748 -0.403253,0.56268 -0.473391,0.84403 -0.49092,1.75425 0,0.94333 0.07012,1.17502 0.508459,1.75426 0.806514,1.04262 1.402631,1.37361 2.524738,1.37361 1.209776,0 1.840963,-0.33099 2.559808,-1.32396 0.473391,-0.64544 0.543519,-0.89368 0.543519,-1.82046 -0.01758,-0.89367 -0.08769,-1.19157 -0.49092,-1.72115 -0.683777,-0.94333 -1.314973,-1.22467 -2.700075,-1.24122 -0.666246,-0.0165 -1.192236,0.0331 -1.192236,0.11585 z m 2.349413,1.6053 c 0.806513,0.81093 0.666256,2.168 -0.262995,2.79688 -0.859112,0.56269 -1.928621,0.0828 -2.279274,-1.04262 -0.175336,-0.52959 -0.140276,-0.71163 0.175327,-1.29087 0.403252,-0.76128 0.543519,-0.84403 1.385092,-0.86058 0.403271,-0.0165 0.701326,0.11585 0.98185,0.39719 z"
       id="path3261" />
    <path
       style="display:inline"
       inkscape:connector-curvature="0"
       d="m 95.139092,218.65276 c -1.577968,0.81093 -2.226685,2.51554 -1.560429,4.0381 0.368183,0.82748 0.701316,1.19157 1.50782,1.57221 1.525369,0.72818 3.261133,0.0993 4.015048,-1.45636 0.736384,-1.53911 0.105198,-3.35957 -1.455231,-4.12085 -0.561058,-0.28134 -2.016289,-0.29789 -2.507208,-0.0331 z m 2.261743,1.53911 c 0.227935,0.2317 0.47339,0.61234 0.52599,0.84403 0.262994,0.94333 -0.648717,2.21765 -1.560429,2.21765 -0.911711,0 -1.823423,-1.27432 -1.560428,-2.21765 0.192856,-0.71163 0.859112,-1.25776 1.560428,-1.25776 0.455851,0 0.753915,0.11584 1.034439,0.41373 z"
       id="path3263" />
    <flowRoot
       xml:space="preserve"
       id="flowRoot3275"
       style="font-size:40px;font-style:normal;font-weight:normal;line-height:125%;letter-spacing:0px;word-spacing:0px;fill:#000000;fill-opacity:1;stroke:none;display:inline;font-family:Sans"
       transform="matrix(0.14026351,0,0,0.13239659,44.898594,171.97858)"><flowRegion
         id="flowRegion3277"><rect
           id="rect3279"
           width="460.66809"
           height="93.631721"
           x="97.376991"
           y="508.89667" /></flowRegion><flowPara
         id="flowPara3281"
         style="font-size:48px;font-weight:normal;fill:#666666;-inkscape-font-specification:Sans">MORICE.NET</flowPara></flowRoot>  </g>
</svg>
