<?xml version="1.0" encoding="UTF-8" standalone="no"?>
<svg
   xmlns:dc="http://purl.org/dc/elements/1.1/"
   xmlns:cc="http://creativecommons.org/ns#"
   xmlns:rdf="http://www.w3.org/1999/02/22-rdf-syntax-ns#"
   xmlns:svg="http://www.w3.org/2000/svg"
   xmlns="http://www.w3.org/2000/svg"
   xmlns:sodipodi="http://sodipodi.sourceforge.net/DTD/sodipodi-0.dtd"
   xmlns:inkscape="http://www.inkscape.org/namespaces/inkscape"
   version="1.0"
   width="500.000000pt"
   height="500.000000pt"
   viewBox="0 0 500.000000 500.000000"
   preserveAspectRatio="xMidYMid meet"
   id="svg3247"
   inkscape:version="0.48.4 r9939"
   sodipodi:docname="Morice-Avatar.svg">
  <defs
     id="defs3273" />
  <sodipodi:namedview
     pagecolor="#ffffff"
     bordercolor="#666666"
     borderopacity="1"
     objecttolerance="10"
     gridtolerance="10"
     guidetolerance="10"
     inkscape:pageopacity="0"
     inkscape:pageshadow="2"
     inkscape:window-width="640"
     inkscape:window-height="480"
     id="namedview3271"
     showgrid="false"
     inkscape:zoom="0.26700352"
     inkscape:cx="309.75805"
     inkscape:cy="142.97848"
     inkscape:window-x="0"
     inkscape:window-y="0"
     inkscape:window-maximized="0"
     inkscape:current-layer="g3251" />
  <metadata
     id="metadata3249">
Created by potrace 1.11, written by Peter Selinger 2001-2013
<rdf:RDF>
  <cc:Work
     rdf:about="">
    <dc:format>image/svg+xml</dc:format>
    <dc:type
       rdf:resource="http://purl.org/dc/dcmitype/StillImage" />
    <dc:title></dc:title>
  </cc:Work>
</rdf:RDF>
</metadata>
  <g
     transform="translate(0.000000,500.000000) scale(0.100000,-0.100000)"
     fill="#000000"
     stroke="none"
     id="g3251">
    <path
       d="M2205 4880 c-164 -22 -191 -27 -295 -52 -881 -212 -1537 -862 -1661 -1648 -14 -89 -25 -260 -18 -271 3 -6 67 -8 150 -7 l144 3 3 25 c29 292 115 539 268 771 234 356 582 617 1014 762 364 122 726 145 1115 71 89 -17 102 -21 230 -60 435 -134 813 -412 1047 -770 77 -119 157 -278 188 -379 7 -22 16 -51 21 -65 20 -63 51 -228 61 -330 l3 -25 163 -3 162 -2 0 58 c0 61 -22 230 -41 317 -14 62 -75 258 -96 305 -128 298 -322 556 -580 772 -139 116 -242 183 -428 278 -173 88 -294 134 -495 187 -295 78 -664 102 -955 63z m690 -77 c152 -26 391 -97 578 -172 250 -100 480 -254 695 -465 140 -137 201 -214 297 -371 97 -160 116 -202 177 -390 60 -183 78 -263 78 -340 0 -69 -18 -85 -95 -85 -79 0 -90 12 -104 110 -23 165 -67 297 -155 475 -104 209 -195 333 -367 500 -129 125 -253 219 -386 293 -73 40 -107 57 -239 117 -75 34 -289 101 -369 114 -38 7 -89 16 -113 21 -23 6 -200 10 -392 10 -192 0 -369 -4 -392 -10 -24 -5 -74 -14 -113 -21 -223 -37 -563 -187 -789 -347 -114 -81 -315 -278 -408 -402 -116 -155 -237 -401 -282 -578 -19 -74 -38 -159 -42 -190 -9 -75 -24 -92 -86 -92 -61 0 -88 24 -88 78 0 96 101 446 166 575 40 80 162 274 218 347 169 222 486 472 776 612 169 82 459 171 705 216 65 12 652 8 730 -5z"
       id="path3253" />
    <path
       d="M2457 4222 c-57 -60 -21 -172 55 -172 44 0 88 51 88 100 0 28 -8 46 -29 69 -38 40 -77 41 -114 3z"
       id="path3255" />
    <path
       d="M1850 3822 c0 -208 -3 -381 -6 -384 -3 -4 -22 12 -42 35 -89 101 -126 137 -142 137 -26 0 -170 -111 -262 -202 -107 -105 -196 -226 -258 -351 -63 -125 -77 -171 -60 -192 7 -8 21 -15 31 -15 11 0 54 -11 97 -25 42 -13 115 -36 162 -50 47 -14 121 -36 165 -50 44 -13 118 -36 165 -50 145 -43 252 -76 331 -101 42 -13 83 -24 91 -24 17 0 268 242 268 258 0 7 -26 41 -57 75 -32 35 -74 81 -93 103 -19 22 -54 61 -77 87 l-43 47 0 359 c0 198 3 366 6 375 9 22 24 20 24 -4 0 -11 12 -45 26 -77 29 -63 41 -92 74 -168 24 -57 39 -91 68 -155 11 -25 30 -70 42 -100 13 -30 26 -59 30 -63 6 -7 97 -11 181 -8 10 1 23 20 34 49 16 42 36 86 96 219 10 24 19 45 19 47 0 3 14 35 31 73 16 37 34 77 39 88 4 11 15 36 24 57 9 20 16 41 16 48 0 6 5 8 10 5 6 -4 10 -144 10 -389 l0 -382 -125 -129 c-68 -72 -124 -135 -125 -141 0 -7 12 -20 28 -29 27 -18 173 -132 264 -207 26 -21 54 -38 63 -38 9 0 49 11 88 24 70 23 217 69 447 142 63 19 147 46 185 58 39 13 111 36 160 51 50 15 93 30 97 34 22 20 -96 263 -190 391 -100 135 -339 350 -390 350 -12 0 -57 -39 -115 -101 -55 -57 -101 -98 -107 -94 -7 5 -10 123 -10 388 0 210 1 388 0 395 0 9 -44 12 -184 12 l-184 0 -22 -52 c-24 -58 -54 -126 -75 -173 -7 -16 -25 -58 -39 -93 -15 -34 -39 -91 -55 -125 -15 -34 -36 -83 -47 -109 -10 -27 -22 -48 -26 -48 -4 0 -13 15 -21 33 -8 17 -24 53 -36 79 -12 27 -37 87 -57 135 -20 49 -45 108 -56 133 -11 25 -26 59 -33 75 -7 17 -25 56 -39 88 l-25 57 -185 0 -186 0 0 -378z m312 287 c20 -11 56 -84 123 -249 115 -282 123 -295 181 -306 49 -9 99 19 123 69 25 54 87 203 141 340 24 59 53 118 64 131 41 44 211 46 241 2 12 -17 15 -77 15 -352 0 -317 1 -332 20 -357 43 -54 114 -42 185 33 43 45 83 70 113 70 20 0 163 -102 199 -141 102 -114 253 -360 253 -414 0 -33 -30 -51 -145 -86 -55 -17 -194 -62 -310 -99 -247 -79 -354 -110 -387 -110 -35 1 -125 64 -225 157 -38 37 -30 59 61 152 46 47 89 96 95 108 8 15 11 141 11 406 0 358 -1 386 -18 407 -15 18 -29 23 -66 24 -75 0 -80 -6 -200 -304 -71 -174 -95 -218 -124 -228 -15 -5 -37 -6 -49 -1 -25 9 -68 88 -119 219 -18 47 -44 108 -57 135 -13 28 -30 66 -36 87 -14 43 -53 88 -78 89 -48 3 -80 -4 -98 -22 -19 -19 -20 -35 -23 -372 -2 -193 0 -366 3 -384 3 -18 28 -57 58 -91 113 -129 157 -187 157 -210 0 -29 -122 -160 -158 -169 -24 -6 -103 13 -297 72 -60 18 -173 52 -250 75 -335 100 -385 120 -385 155 0 47 166 310 258 408 47 50 189 147 215 147 16 0 36 -12 54 -32 70 -79 84 -88 127 -88 31 0 48 6 63 23 20 21 21 37 26 350 6 363 5 361 71 370 43 6 146 -2 168 -14z"
       id="path3257" />
    <path
       d="M1006 2411 c-8 -12 18 -181 36 -241 23 -76 41 -110 58 -110 21 0 30 -20 30 -67 0 -41 15 -139 37 -233 85 -376 337 -716 675 -908 214 -122 406 -172 664 -172 133 0 169 4 299 32 231 49 468 184 653 370 244 246 386 565 415 933 1 22 8 31 23 33 22 3 36 33 63 127 19 70 42 217 36 233 -5 13 -55 14 -413 8 -394 -7 -443 -10 -442 -24 1 -4 27 -27 58 -52 31 -25 121 -98 198 -162 121 -101 147 -118 177 -118 49 0 58 -15 47 -85 -43 -291 -146 -503 -334 -690 -128 -127 -275 -220 -436 -275 -225 -76 -432 -80 -690 -12 -43 11 -147 55 -213 89 -186 98 -398 323 -487 518 -58 128 -110 326 -110 423 l0 42 64 0 c73 0 65 -4 293 163 131 96 183 141 183 156 0 4 -109 11 -242 14 -134 4 -331 10 -439 13 -144 5 -198 4 -203 -5z m631 -67 c37 -10 36 -34 -3 -71 -55 -51 -183 -132 -229 -143 -99 -26 -105 -36 -105 -187 0 -97 4 -117 41 -231 22 -69 52 -148 66 -176 145 -286 443 -531 743 -611 89 -23 110 -25 337 -25 226 0 249 2 339 25 168 44 375 164 512 298 70 69 188 229 229 312 11 22 40 99 64 170 43 127 44 133 42 248 -1 135 -10 154 -82 176 -21 6 -66 36 -100 66 -34 30 -73 62 -86 71 -33 22 -42 54 -19 71 14 10 73 13 251 13 220 0 234 -1 253 -20 16 -16 19 -28 14 -63 -10 -72 -25 -108 -62 -149 -35 -38 -36 -44 -43 -136 -28 -388 -273 -797 -610 -1022 -129 -86 -248 -137 -424 -181 -97 -25 -129 -29 -263 -29 -137 0 -165 3 -271 30 -175 44 -290 93 -421 181 -185 124 -360 321 -460 519 -79 158 -139 359 -150 507 -6 87 -8 93 -42 131 -37 41 -52 77 -62 149 -5 35 -2 47 14 63 19 19 33 20 263 20 133 0 252 -3 264 -6z"
       id="path3259" />
    <path
       d="M1600 1862 c0 -4 -10 -12 -22 -17 -12 -6 -35 -28 -50 -50 -23 -34 -27 -51 -28 -106 0 -57 4 -71 29 -106 46 -63 80 -83 144 -83 69 0 105 20 146 80 27 39 31 54 31 110 -1 54 -5 72 -28 104 -39 57 -75 74 -154 75 -38 1 -68 -2 -68 -7z m134 -97 c46 -49 38 -131 -15 -169 -49 -34 -110 -5 -130 63 -10 32 -8 43 10 78 23 46 31 51 79 52 23 1 40 -7 56 -24z"
       id="path3261" />
    <path
       d="M3255 1858 c-90 -49 -127 -152 -89 -244 21 -50 40 -72 86 -95 87 -44 186 -6 229 88 42 93 6 203 -83 249 -32 17 -115 18 -143 2z m129 -93 c13 -14 27 -37 30 -51 15 -57 -37 -134 -89 -134 -52 0 -104 77 -89 134 11 43 49 76 89 76 26 0 43 -7 59 -25z"
       id="path3263" />
    <flowRoot
       xml:space="preserve"
       id="flowRoot3275"
       style="font-size:40px;font-style:normal;font-weight:normal;line-height:125%;letter-spacing:0px;word-spacing:0px;fill:#000000;fill-opacity:1;stroke:none;font-family:Sans"
       transform="matrix(8,0,0,-8,389.50797,4678.265)"><flowRegion
         id="flowRegion3277"><rect
           id="rect3279"
           width="460.66809"
           height="93.631721"
           x="97.376991"
           y="508.89667" /></flowRegion><flowPara
         id="flowPara3281"
         style="font-size:48px;font-weight:normal;fill:#666666;-inkscape-font-specification:Sans">MORICE.NET</flowPara></flowRoot>  </g>
</svg>
